<svg width="41" height="41" viewBox="0 0 41 41" fill="none" xmlns="http://www.w3.org/2000/svg">
<path d="M0 8C0 3.58172 3.58172 0 8 0H33C37.4183 0 41 3.58172 41 8V33C41 37.4183 37.4183 41 33 41H8C3.58172 41 0 37.4183 0 33V8Z" fill="#488286" fill-opacity="0.5"/>
<path d="M4.82297 4.8287C5.92026 3.7238 7.69932 3.7238 8.79662 4.8287L20.5 16.6132L24.4736 20.6144L35.9499 32.1701C37.0472 33.275 37.0472 35.0664 35.9499 36.1713C34.8526 37.2762 33.0735 37.2762 31.9762 36.1713L20.5 24.6156L24.4736 20.6144L20.5 16.6132L16.5263 20.6144L4.82297 8.82988C3.72568 7.72499 3.72568 5.93359 4.82297 4.8287Z" fill="black" fill-opacity="0.5"/>
<path d="M36.177 4.82867C37.2743 5.93357 37.2743 7.72496 36.177 8.82986L24.4736 20.6144L20.5 24.6156L9.02378 36.1713C7.92649 37.2762 6.14743 37.2762 5.05014 36.1713C3.95284 35.0664 3.95284 33.275 5.05014 32.1701L16.5263 20.6144L20.5 16.6132L32.2034 4.82867C33.3007 3.72378 35.0797 3.72378 36.177 4.82867Z" fill="black" fill-opacity="0.5"/>
</svg>
