<svg width="177" height="177" viewBox="0 0 177 177" fill="none" xmlns="http://www.w3.org/2000/svg">
<rect width="177" height="177" rx="10" fill="black"/>
<rect x="3.36084" y="3.36078" width="170.278" height="170.278" rx="11" fill="#488286"/>
<path d="M143.873 49C146.082 49 147.873 50.7909 147.873 53V123.418C147.873 125.627 146.082 127.418 143.873 127.418H139.691C138.334 127.418 137.07 126.73 136.333 125.591L105.736 78.3063C103.57 74.9598 98.3777 76.4933 98.3777 80.4793V123.418C98.3777 125.627 96.5868 127.418 94.3777 127.418H92.0728C89.8636 127.418 88.0728 125.627 88.0728 123.418V53C88.0728 50.7909 89.8636 49 92.0728 49H96.2033C97.5592 49 98.8228 49.6869 99.5601 50.8248L130.318 98.2913C132.485 101.635 137.675 100.101 137.675 96.1161V53C137.675 50.7909 139.466 49 141.675 49H143.873Z" fill="black"/>
<path d="M43.3049 119C41.0958 119 39.3049 117.209 39.3049 115V53C39.3049 50.7909 37.5141 49 35.3049 49H33C30.7909 49 29 50.7909 29 53V123.456C29 125.665 30.7909 127.456 33 127.456H71.8704C74.0795 127.456 75.8704 125.665 75.8704 123.456V123C75.8704 120.791 74.0795 119 71.8704 119H43.3049Z" fill="black"/>
<path d="M19.0444 34.7278H158.516" stroke="black" stroke-width="3" stroke-linecap="round" stroke-linejoin="round"/>
<path d="M19.0444 142.272H158.516" stroke="black" stroke-width="3" stroke-linecap="round" stroke-linejoin="round"/>
</svg>
